<mxfile host="app.diagrams.net" modified="2024-03-04T13:06:16.311Z" agent="Mozilla/5.0 (Macintosh; Intel Mac OS X 10_15_7) AppleWebKit/537.36 (KHTML, like Gecko) Chrome/122.0.0.0 Safari/537.36" etag="cCSA1YFHShySs1hzqdr5" version="23.1.4" type="github">
  <diagram name="Page-1" id="GK6aCAxCoU3ya3uAB7br">
    <mxGraphModel dx="1449" dy="1121" grid="1" gridSize="10" guides="1" tooltips="1" connect="1" arrows="1" fold="1" page="1" pageScale="1" pageWidth="850" pageHeight="1100" math="0" shadow="0">
      <root>
        <mxCell id="0" />
        <mxCell id="1" parent="0" />
        <mxCell id="XuDKtZhECwmgFhSPbDCY-3" style="edgeStyle=orthogonalEdgeStyle;rounded=0;orthogonalLoop=1;jettySize=auto;html=1;exitX=0.5;exitY=1;exitDx=0;exitDy=0;entryX=0.5;entryY=0;entryDx=0;entryDy=0;" edge="1" parent="1" source="XuDKtZhECwmgFhSPbDCY-1" target="XuDKtZhECwmgFhSPbDCY-2">
          <mxGeometry relative="1" as="geometry" />
        </mxCell>
        <mxCell id="XuDKtZhECwmgFhSPbDCY-1" value="./minishell" style="rounded=1;whiteSpace=wrap;html=1;fillColor=#dae8fc;strokeColor=#6c8ebf;" vertex="1" parent="1">
          <mxGeometry x="320" y="40" width="170" height="80" as="geometry" />
        </mxCell>
        <mxCell id="XuDKtZhECwmgFhSPbDCY-2" value="name &amp;gt;&amp;nbsp;" style="rounded=1;whiteSpace=wrap;html=1;fillColor=#dae8fc;strokeColor=#6c8ebf;" vertex="1" parent="1">
          <mxGeometry x="320" y="160" width="170" height="80" as="geometry" />
        </mxCell>
      </root>
    </mxGraphModel>
  </diagram>
</mxfile>
